<svg xmlns="http://www.w3.org/2000/svg" viewBox="0 0 800 600" role="img" aria-label="Personal hygiene product">
  <rect width="800" height="600" fill="#f0faf5"/>
  <rect x="78" y="88" width="644" height="424" rx="34" fill="#ffffff"/>
  <rect x="140" y="410" width="520" height="46" rx="12" fill="#dbe9e3"/>
  <rect x="300" y="190" width="150" height="238" rx="22" fill="#1f7a5f"/>
  <rect x="326" y="132" width="98" height="60" rx="12" fill="#15211f"/>
  <path d="M348 104h94v26h-94c0-14 12-26 26-26h68z" fill="#f5b340"/>
  <rect x="332" y="268" width="86" height="78" rx="14" fill="#ffffff" opacity=".94"/>
  <path d="M378 288c24 30 34 48 34 64 0 20-15 34-34 34s-34-14-34-34c0-16 10-34 34-64z" fill="#e9f7f1"/>
  <rect x="500" y="242" width="76" height="186" rx="16" fill="#f5b340"/>
  <rect x="516" y="198" width="44" height="46" rx="8" fill="#15211f"/>
</svg>
