<svg xmlns="http://www.w3.org/2000/svg" viewBox="0 0 800 600" role="img" aria-label="Laundry product">
  <rect width="800" height="600" fill="#f7faf8"/>
  <rect x="76" y="90" width="648" height="420" rx="34" fill="#ffffff"/>
  <rect x="136" y="402" width="528" height="46" rx="12" fill="#dbe9e3"/>
  <path d="M232 202h188v226H232z" fill="#f5b340"/>
  <path d="M268 148h116v56H268z" fill="#15211f"/>
  <rect x="276" y="260" width="100" height="88" rx="14" fill="#fffaf0"/>
  <path d="M304 292c16-18 29-18 45 0 15 17 28 17 43 0v26c-16 18-29 18-44 0-16-17-28-17-44 0z" fill="#1f7a5f"/>
  <rect x="478" y="228" width="100" height="200" rx="16" fill="#1f7a5f"/>
  <rect x="500" y="182" width="56" height="48" rx="8" fill="#15211f"/>
  <rect x="504" y="290" width="48" height="56" rx="10" fill="#ffffff" opacity=".9"/>
</svg>
